<svg width="47" height="51" viewBox="0 0 47 51" fill="none" xmlns="http://www.w3.org/2000/svg">
<circle cx="22.5" cy="19.5" r="17.5" stroke="#008080" stroke-opacity="0.5" stroke-width="4"/>
<path d="M5.56642 15.0837C4.66213 18.551 4.84404 22.2124 6.08757 25.5731C7.33111 28.9337 9.57632 31.8316 12.5198 33.8752C15.4633 35.9187 18.9632 37.0095 22.5465 36.9999C26.1298 36.9904 29.6239 35.8811 32.5564 33.8219C35.489 31.7628 37.7188 28.853 38.9445 25.4858C40.1701 22.1186 40.3326 18.4563 39.4099 14.9938C38.4872 11.5313 36.5238 8.43547 33.785 6.12473C31.0463 3.81398 27.6642 2.39967 24.0958 2.07291" stroke="#008080" stroke-width="4" stroke-linecap="round"/>
<path d="M5.23 44.35C5.63667 44.47 5.95 44.68 6.17 44.98C6.39667 45.2733 6.51 45.6367 6.51 46.07C6.51 46.6633 6.29 47.1333 5.85 47.48C5.41667 47.8267 4.81667 48 4.05 48H1.43C1.19667 48 1.01667 47.9367 0.89 47.81C0.763333 47.6833 0.7 47.5033 0.7 47.27V41.68C0.7 41.4467 0.763333 41.2667 0.89 41.14C1.01667 41.0133 1.19667 40.95 1.43 40.95H3.95C4.68333 40.95 5.26333 41.1133 5.69 41.44C6.12333 41.7667 6.34 42.2133 6.34 42.78C6.34 43.1467 6.24 43.47 6.04 43.75C5.84667 44.0233 5.57667 44.2233 5.23 44.35ZM2.22 43.82H3.69C4.09 43.82 4.38333 43.7533 4.57 43.62C4.76333 43.48 4.86 43.27 4.86 42.99C4.86 42.6967 4.76333 42.4833 4.57 42.35C4.38333 42.21 4.09 42.14 3.69 42.14H2.22V43.82ZM3.87 46.81C4.28333 46.81 4.58333 46.74 4.77 46.6C4.95667 46.46 5.05 46.2333 5.05 45.92C5.05 45.6067 4.95667 45.3767 4.77 45.23C4.58333 45.0833 4.28333 45.01 3.87 45.01H2.22V46.81H3.87ZM9.83453 48.08C9.31453 48.08 8.85786 47.9767 8.46453 47.77C8.0712 47.5567 7.76786 47.26 7.55453 46.88C7.3412 46.4933 7.23453 46.04 7.23453 45.52C7.23453 45 7.3412 44.55 7.55453 44.17C7.76786 43.7833 8.0712 43.4867 8.46453 43.28C8.85786 43.0733 9.31453 42.97 9.83453 42.97C10.3545 42.97 10.8112 43.0733 11.2045 43.28C11.5979 43.4867 11.9012 43.7833 12.1145 44.17C12.3279 44.55 12.4345 45 12.4345 45.52C12.4345 46.04 12.3279 46.4933 12.1145 46.88C11.9012 47.26 11.5979 47.5567 11.2045 47.77C10.8112 47.9767 10.3545 48.08 9.83453 48.08ZM9.83453 46.93C10.5679 46.93 10.9345 46.46 10.9345 45.52C10.9345 45.0467 10.8379 44.6933 10.6445 44.46C10.4579 44.2267 10.1879 44.11 9.83453 44.11C9.1012 44.11 8.73453 44.58 8.73453 45.52C8.73453 46.46 9.1012 46.93 9.83453 46.93ZM15.7134 48.08C15.1934 48.08 14.7368 47.9767 14.3434 47.77C13.9501 47.5567 13.6468 47.26 13.4334 46.88C13.2201 46.4933 13.1134 46.04 13.1134 45.52C13.1134 45 13.2201 44.55 13.4334 44.17C13.6468 43.7833 13.9501 43.4867 14.3434 43.28C14.7368 43.0733 15.1934 42.97 15.7134 42.97C16.2334 42.97 16.6901 43.0733 17.0834 43.28C17.4768 43.4867 17.7801 43.7833 17.9934 44.17C18.2068 44.55 18.3134 45 18.3134 45.52C18.3134 46.04 18.2068 46.4933 17.9934 46.88C17.7801 47.26 17.4768 47.5567 17.0834 47.77C16.6901 47.9767 16.2334 48.08 15.7134 48.08ZM15.7134 46.93C16.4468 46.93 16.8134 46.46 16.8134 45.52C16.8134 45.0467 16.7168 44.6933 16.5234 44.46C16.3368 44.2267 16.0668 44.11 15.7134 44.11C14.9801 44.11 14.6134 44.58 14.6134 45.52C14.6134 46.46 14.9801 46.93 15.7134 46.93ZM21.9135 46.96C22.1135 46.9733 22.2602 47.0233 22.3535 47.11C22.4468 47.1967 22.4935 47.3233 22.4935 47.49C22.4935 47.6833 22.4168 47.83 22.2635 47.93C22.1102 48.03 21.8902 48.07 21.6035 48.05L21.3235 48.03C20.1568 47.9367 19.5735 47.3267 19.5735 46.2V44.22H19.1735C18.9535 44.22 18.7868 44.1733 18.6735 44.08C18.5602 43.98 18.5035 43.84 18.5035 43.66C18.5035 43.4733 18.5602 43.3333 18.6735 43.24C18.7868 43.14 18.9535 43.09 19.1735 43.09H19.5735V42.31C19.5735 42.09 19.6402 41.9167 19.7735 41.79C19.9135 41.6633 20.1002 41.6 20.3335 41.6C20.5668 41.6 20.7502 41.6633 20.8835 41.79C21.0168 41.9167 21.0835 42.09 21.0835 42.31V43.09H21.7835C22.2368 43.09 22.4635 43.28 22.4635 43.66C22.4635 43.84 22.4068 43.98 22.2935 44.08C22.1802 44.1733 22.0102 44.22 21.7835 44.22H21.0835V46.31C21.0835 46.51 21.1302 46.6633 21.2235 46.77C21.3168 46.87 21.4535 46.9267 21.6335 46.94L21.9135 46.96ZM24.9107 48.08C24.504 48.08 24.1507 48.0467 23.8507 47.98C23.5507 47.9133 23.2874 47.8067 23.0607 47.66C22.9607 47.6 22.884 47.52 22.8307 47.42C22.7774 47.32 22.7507 47.2067 22.7507 47.08C22.7507 46.9267 22.794 46.8 22.8807 46.7C22.9674 46.5933 23.074 46.54 23.2007 46.54C23.2874 46.54 23.374 46.5567 23.4607 46.59C23.5474 46.6167 23.6374 46.65 23.7307 46.69C23.9174 46.7767 24.1007 46.8467 24.2807 46.9C24.4607 46.9467 24.684 46.97 24.9507 46.97C25.184 46.97 25.364 46.9333 25.4907 46.86C25.624 46.7867 25.6907 46.6867 25.6907 46.56C25.6907 46.4667 25.6607 46.3933 25.6007 46.34C25.5474 46.28 25.444 46.2267 25.2907 46.18C25.1374 46.1333 24.894 46.0767 24.5607 46.01C23.9674 45.8967 23.5407 45.7267 23.2807 45.5C23.0207 45.2733 22.8907 44.9567 22.8907 44.55C22.8907 44.25 22.9807 43.98 23.1607 43.74C23.3474 43.5 23.6007 43.3133 23.9207 43.18C24.2407 43.04 24.6007 42.97 25.0007 42.97C25.2874 42.97 25.5674 43.0067 25.8407 43.08C26.114 43.1533 26.3574 43.2567 26.5707 43.39C26.7774 43.5167 26.8807 43.7033 26.8807 43.95C26.8807 44.11 26.8374 44.2433 26.7507 44.35C26.664 44.4567 26.5574 44.51 26.4307 44.51C26.2774 44.51 26.094 44.45 25.8807 44.33C25.714 44.2433 25.5607 44.18 25.4207 44.14C25.2874 44.0933 25.1274 44.07 24.9407 44.07C24.734 44.07 24.5707 44.11 24.4507 44.19C24.3307 44.2633 24.2707 44.3667 24.2707 44.5C24.2707 44.64 24.3407 44.7467 24.4807 44.82C24.6207 44.8933 24.8907 44.9667 25.2907 45.04C25.7374 45.1267 26.0874 45.2333 26.3407 45.36C26.594 45.48 26.7774 45.6333 26.8907 45.82C27.004 46.0067 27.0607 46.2433 27.0607 46.53C27.0607 47.0033 26.864 47.38 26.4707 47.66C26.084 47.94 25.564 48.08 24.9107 48.08ZM30.6049 46.96C30.8049 46.9733 30.9516 47.0233 31.0449 47.11C31.1383 47.1967 31.1849 47.3233 31.1849 47.49C31.1849 47.6833 31.1083 47.83 30.9549 47.93C30.8016 48.03 30.5816 48.07 30.2949 48.05L30.0149 48.03C28.8483 47.9367 28.2649 47.3267 28.2649 46.2V44.22H27.8649C27.6449 44.22 27.4783 44.1733 27.3649 44.08C27.2516 43.98 27.1949 43.84 27.1949 43.66C27.1949 43.4733 27.2516 43.3333 27.3649 43.24C27.4783 43.14 27.6449 43.09 27.8649 43.09H28.2649V42.31C28.2649 42.09 28.3316 41.9167 28.4649 41.79C28.6049 41.6633 28.7916 41.6 29.0249 41.6C29.2583 41.6 29.4416 41.6633 29.5749 41.79C29.7083 41.9167 29.7749 42.09 29.7749 42.31V43.09H30.4749C30.9283 43.09 31.1549 43.28 31.1549 43.66C31.1549 43.84 31.0983 43.98 30.9849 44.08C30.8716 44.1733 30.7016 44.22 30.4749 44.22H29.7749V46.31C29.7749 46.51 29.8216 46.6633 29.9149 46.77C30.0083 46.87 30.1449 46.9267 30.3249 46.94L30.6049 46.96ZM34.6721 42.99C34.8721 42.9767 35.0288 43.0233 35.1421 43.13C35.2621 43.23 35.3221 43.3833 35.3221 43.59C35.3221 43.81 35.2688 43.9733 35.1621 44.08C35.0554 44.1867 34.8654 44.2533 34.5921 44.28L34.2921 44.31C33.9254 44.35 33.6588 44.47 33.4921 44.67C33.3321 44.87 33.2521 45.1267 33.2521 45.44V47.35C33.2521 47.5833 33.1788 47.76 33.0321 47.88C32.8921 48 32.7154 48.06 32.5021 48.06C32.2821 48.06 32.0988 48 31.9521 47.88C31.8121 47.76 31.7421 47.5833 31.7421 47.35V43.68C31.7421 43.46 31.8154 43.29 31.9621 43.17C32.1088 43.05 32.2854 42.99 32.4921 42.99C32.6921 42.99 32.8588 43.05 32.9921 43.17C33.1254 43.2833 33.1921 43.4433 33.1921 43.65V43.92C33.3121 43.6333 33.4921 43.4133 33.7321 43.26C33.9788 43.1067 34.2454 43.02 34.5321 43L34.6721 42.99ZM37.9658 42.97C38.6858 42.97 39.2191 43.1467 39.5658 43.5C39.9124 43.8467 40.0858 44.38 40.0858 45.1V47.36C40.0858 47.58 40.0224 47.7533 39.8958 47.88C39.7691 48 39.5924 48.06 39.3658 48.06C39.1524 48.06 38.9791 47.9967 38.8458 47.87C38.7191 47.7367 38.6558 47.5667 38.6558 47.36V47.29C38.5558 47.5367 38.3891 47.73 38.1558 47.87C37.9224 48.01 37.6491 48.08 37.3358 48.08C37.0024 48.08 36.6991 48.0133 36.4258 47.88C36.1591 47.7467 35.9458 47.56 35.7858 47.32C35.6324 47.08 35.5558 46.8133 35.5558 46.52C35.5558 46.16 35.6458 45.8767 35.8258 45.67C36.0124 45.4633 36.3091 45.3133 36.7158 45.22C37.1224 45.1267 37.6791 45.08 38.3858 45.08H38.6458V44.9C38.6458 44.62 38.5824 44.4167 38.4558 44.29C38.3358 44.1633 38.1324 44.1 37.8458 44.1C37.5591 44.1 37.1458 44.2 36.6058 44.4C36.4524 44.4733 36.3224 44.51 36.2158 44.51C36.0691 44.51 35.9524 44.46 35.8658 44.36C35.7791 44.2533 35.7358 44.1167 35.7358 43.95C35.7358 43.8167 35.7658 43.7067 35.8258 43.62C35.8858 43.5333 35.9824 43.4533 36.1158 43.38C36.3491 43.2533 36.6324 43.1533 36.9658 43.08C37.3058 43.0067 37.6391 42.97 37.9658 42.97ZM37.6658 47.04C37.9591 47.04 38.1958 46.9433 38.3758 46.75C38.5558 46.55 38.6458 46.2933 38.6458 45.98V45.81H38.4758C37.9358 45.81 37.5558 45.8533 37.3358 45.94C37.1224 46.0267 37.0158 46.1833 37.0158 46.41C37.0158 46.5967 37.0758 46.75 37.1958 46.87C37.3224 46.9833 37.4791 47.04 37.6658 47.04ZM44.2548 42.97C44.6748 42.97 45.0481 43.08 45.3748 43.3C45.7081 43.5133 45.9648 43.8167 46.1448 44.21C46.3314 44.5967 46.4248 45.0433 46.4248 45.55C46.4248 46.0567 46.3314 46.5033 46.1448 46.89C45.9648 47.27 45.7114 47.5633 45.3848 47.77C45.0581 47.9767 44.6814 48.08 44.2548 48.08C43.9214 48.08 43.6181 48.0133 43.3448 47.88C43.0781 47.74 42.8714 47.5467 42.7248 47.3V49.19C42.7248 49.39 42.6581 49.55 42.5248 49.67C42.3914 49.79 42.2148 49.85 41.9948 49.85C41.7614 49.85 41.5714 49.7867 41.4248 49.66C41.2848 49.5333 41.2148 49.3667 41.2148 49.16V43.7C41.2148 43.4867 41.2814 43.3167 41.4148 43.19C41.5548 43.0567 41.7381 42.99 41.9648 42.99C42.1914 42.99 42.3714 43.0567 42.5048 43.19C42.6381 43.3167 42.7048 43.4867 42.7048 43.7V43.78C42.8514 43.5267 43.0614 43.33 43.3348 43.19C43.6081 43.0433 43.9148 42.97 44.2548 42.97ZM43.8148 46.93C44.1681 46.93 44.4414 46.8133 44.6348 46.58C44.8281 46.34 44.9248 45.9967 44.9248 45.55C44.9248 45.0967 44.8281 44.7467 44.6348 44.5C44.4414 44.2467 44.1681 44.12 43.8148 44.12C43.4614 44.12 43.1881 44.2433 42.9948 44.49C42.8014 44.73 42.7048 45.0767 42.7048 45.53C42.7048 45.9767 42.8014 46.3233 42.9948 46.57C43.1881 46.81 43.4614 46.93 43.8148 46.93Z" fill="#008080"/>
<path d="M24.58 18.9931C24.58 18.2257 24.0383 17.8021 23.0869 17.8021H21.3369V20.2743H22.8126C23.9515 20.2708 24.58 19.8125 24.58 18.9931ZM30.9515 18.5486C30.6216 17.4757 30.573 16.1597 30.6112 15.1424C30.6494 14.0833 29.823 13.1111 28.7119 13.1111H17.2952C16.1807 13.1111 15.3577 14.0868 15.3959 15.1424C15.4307 16.1597 15.3855 17.4757 15.0557 18.5486C14.7223 19.625 14.1633 20.3056 13.2432 20.3924V21.3819C14.1598 21.4688 14.7223 22.1493 15.0557 23.2257C15.3855 24.2986 15.4341 25.6146 15.3959 26.6319C15.3577 27.691 16.1841 28.6632 17.2952 28.6632H28.7084C29.823 28.6632 30.6459 27.6875 30.6077 26.6319C30.573 25.6146 30.6182 24.2986 30.948 23.2257C31.2814 22.1493 31.8404 21.4688 32.7571 21.3819V20.3924C31.8439 20.3056 31.2814 19.625 30.9515 18.5486ZM23.4237 25.0243H20.0244V16.75H23.4064C24.9098 16.75 25.8959 17.5625 25.8959 18.8125C25.8959 19.691 25.2327 20.4757 24.3855 20.6111V20.6563C25.5383 20.7813 26.3126 21.5799 26.3126 22.6806C26.3126 24.1424 25.2258 25.0243 23.4237 25.0243ZM23.0765 21.25H21.3369V23.9722H23.1529C24.3404 23.9722 24.9689 23.4965 24.9689 22.6007C24.9689 21.7083 24.323 21.25 23.0765 21.25Z" fill="#008080"/>
</svg>
