<svg width="39" height="53" viewBox="0 0 39 53" fill="none" xmlns="http://www.w3.org/2000/svg">
<circle cx="19.5" cy="19.5" r="17.5" stroke="#008080" stroke-opacity="0.5" stroke-width="4"/>
<path d="M13.407 3.09497C9.42648 4.57338 6.1193 7.44858 4.10172 11.1848C2.08413 14.921 1.49378 19.2633 2.44068 23.4025C3.38759 27.5418 5.80714 31.1955 9.24845 33.6829C12.6898 36.1703 16.9181 37.3217 21.1454 36.9225C25.3728 36.5232 29.3108 34.6006 32.2256 31.5129C35.1403 28.4252 36.8331 24.3831 36.9883 20.1398C37.1435 15.8964 35.7507 11.7414 33.0693 8.44901C30.3879 5.15659 26.6009 2.95138 22.414 2.24432" stroke="#008080" stroke-width="4" stroke-linecap="round"/>
<path d="M13 16.0833L14.1815 29.4828L19.5 31.25L24.8185 29.4828L26 16.0833H13ZM23.5997 18.7917L23.4372 20.393L19.5339 22.062L19.5237 22.0654H23.2984L22.8651 27.0284L19.5406 28L16.1958 27.0115L15.9792 24.5096H17.6346L17.743 25.8063L19.5237 26.2565L21.3755 25.7352L21.5008 23.6498L15.8708 23.6328V23.6294L15.8641 23.6328L15.7422 22.0654L19.5372 20.4844L19.7573 20.393H15.5966L15.4003 18.7917H23.5997Z" fill="#008080"/>
<path d="M10.94 49.09C10.2467 49.09 9.64 48.9433 9.12 48.65C8.6 48.3567 8.2 47.9367 7.92 47.39C7.64 46.8433 7.5 46.2033 7.5 45.47C7.5 44.7367 7.64 44.1 7.92 43.56C8.2 43.0133 8.6 42.5933 9.12 42.3C9.64 42.0067 10.2467 41.86 10.94 41.86C11.8133 41.86 12.5667 42.1 13.2 42.58C13.3 42.66 13.37 42.74 13.41 42.82C13.45 42.9 13.47 43 13.47 43.12C13.47 43.2933 13.42 43.4433 13.32 43.57C13.2267 43.69 13.11 43.75 12.97 43.75C12.8767 43.75 12.7933 43.74 12.72 43.72C12.6533 43.6933 12.5767 43.65 12.49 43.59C12.2233 43.4167 11.9767 43.2933 11.75 43.22C11.5233 43.14 11.28 43.1 11.02 43.1C10.38 43.1 9.89667 43.3 9.57 43.7C9.25 44.0933 9.09 44.6833 9.09 45.47C9.09 47.0567 9.73333 47.85 11.02 47.85C11.2667 47.85 11.5 47.8133 11.72 47.74C11.94 47.66 12.1967 47.5333 12.49 47.36C12.59 47.3 12.6733 47.26 12.74 47.24C12.8067 47.2133 12.8833 47.2 12.97 47.2C13.11 47.2 13.2267 47.2633 13.32 47.39C13.42 47.51 13.47 47.6567 13.47 47.83C13.47 47.95 13.4467 48.0533 13.4 48.14C13.36 48.22 13.2933 48.2967 13.2 48.37C12.5667 48.85 11.8133 49.09 10.94 49.09ZM16.8709 49.09C16.3442 49.09 15.8542 49.03 15.4009 48.91C14.9475 48.7833 14.5775 48.6067 14.2909 48.38C14.1909 48.3067 14.1175 48.23 14.0709 48.15C14.0309 48.0633 14.0109 47.9567 14.0109 47.83C14.0109 47.6633 14.0609 47.5167 14.1609 47.39C14.2675 47.2633 14.3875 47.2 14.5209 47.2C14.5942 47.2 14.6642 47.2133 14.7309 47.24C14.8042 47.26 14.8909 47.3 14.9909 47.36C15.2775 47.54 15.5675 47.6733 15.8609 47.76C16.1542 47.84 16.4775 47.88 16.8309 47.88C17.2709 47.88 17.6075 47.8067 17.8409 47.66C18.0742 47.5133 18.1909 47.3033 18.1909 47.03C18.1909 46.8233 18.0809 46.6567 17.8609 46.53C17.6475 46.4033 17.2642 46.2833 16.7109 46.17C16.0909 46.0433 15.5942 45.89 15.2209 45.71C14.8542 45.53 14.5842 45.3067 14.4109 45.04C14.2442 44.7733 14.1609 44.45 14.1609 44.07C14.1609 43.65 14.2809 43.2733 14.5209 42.94C14.7675 42.6 15.1042 42.3367 15.5309 42.15C15.9642 41.9567 16.4509 41.86 16.9909 41.86C17.9375 41.86 18.7175 42.0967 19.3309 42.57C19.4309 42.65 19.5009 42.7333 19.5409 42.82C19.5875 42.9 19.6109 43 19.6109 43.12C19.6109 43.2867 19.5575 43.4333 19.4509 43.56C19.3509 43.6867 19.2342 43.75 19.1009 43.75C19.0275 43.75 18.9575 43.74 18.8909 43.72C18.8309 43.7 18.7442 43.6567 18.6309 43.59C18.3575 43.4167 18.1042 43.2867 17.8709 43.2C17.6442 43.1133 17.3542 43.07 17.0009 43.07C16.5942 43.07 16.2742 43.15 16.0409 43.31C15.8075 43.4633 15.6909 43.6767 15.6909 43.95C15.6909 44.11 15.7342 44.2433 15.8209 44.35C15.9142 44.45 16.0642 44.54 16.2709 44.62C16.4842 44.7 16.7842 44.7833 17.1709 44.87C18.0775 45.07 18.7275 45.3267 19.1209 45.64C19.5209 45.9533 19.7209 46.3833 19.7209 46.93C19.7209 47.3567 19.6009 47.7333 19.3609 48.06C19.1275 48.3867 18.7942 48.64 18.3609 48.82C17.9342 49 17.4375 49.09 16.8709 49.09ZM23.3845 49.09C22.8579 49.09 22.3679 49.03 21.9145 48.91C21.4612 48.7833 21.0912 48.6067 20.8045 48.38C20.7045 48.3067 20.6312 48.23 20.5845 48.15C20.5445 48.0633 20.5245 47.9567 20.5245 47.83C20.5245 47.6633 20.5745 47.5167 20.6745 47.39C20.7812 47.2633 20.9012 47.2 21.0345 47.2C21.1079 47.2 21.1779 47.2133 21.2445 47.24C21.3179 47.26 21.4045 47.3 21.5045 47.36C21.7912 47.54 22.0812 47.6733 22.3745 47.76C22.6679 47.84 22.9912 47.88 23.3445 47.88C23.7845 47.88 24.1212 47.8067 24.3545 47.66C24.5879 47.5133 24.7045 47.3033 24.7045 47.03C24.7045 46.8233 24.5945 46.6567 24.3745 46.53C24.1612 46.4033 23.7779 46.2833 23.2245 46.17C22.6045 46.0433 22.1079 45.89 21.7345 45.71C21.3679 45.53 21.0979 45.3067 20.9245 45.04C20.7579 44.7733 20.6745 44.45 20.6745 44.07C20.6745 43.65 20.7945 43.2733 21.0345 42.94C21.2812 42.6 21.6179 42.3367 22.0445 42.15C22.4779 41.9567 22.9645 41.86 23.5045 41.86C24.4512 41.86 25.2312 42.0967 25.8445 42.57C25.9445 42.65 26.0145 42.7333 26.0545 42.82C26.1012 42.9 26.1245 43 26.1245 43.12C26.1245 43.2867 26.0712 43.4333 25.9645 43.56C25.8645 43.6867 25.7479 43.75 25.6145 43.75C25.5412 43.75 25.4712 43.74 25.4045 43.72C25.3445 43.7 25.2579 43.6567 25.1445 43.59C24.8712 43.4167 24.6179 43.2867 24.3845 43.2C24.1579 43.1133 23.8679 43.07 23.5145 43.07C23.1079 43.07 22.7879 43.15 22.5545 43.31C22.3212 43.4633 22.2045 43.6767 22.2045 43.95C22.2045 44.11 22.2479 44.2433 22.3345 44.35C22.4279 44.45 22.5779 44.54 22.7845 44.62C22.9979 44.7 23.2979 44.7833 23.6845 44.87C24.5912 45.07 25.2412 45.3267 25.6345 45.64C26.0345 45.9533 26.2345 46.3833 26.2345 46.93C26.2345 47.3567 26.1145 47.7333 25.8745 48.06C25.6412 48.3867 25.3079 48.64 24.8745 48.82C24.4479 49 23.9512 49.09 23.3845 49.09ZM30.8282 45.37C31.2415 45.49 31.5582 45.7 31.7782 46C32.0049 46.2933 32.1182 46.6533 32.1182 47.08C32.1182 47.4867 32.0115 47.84 31.7982 48.14C31.5915 48.44 31.2915 48.6733 30.8982 48.84C30.5049 49 30.0482 49.08 29.5282 49.08C29.0949 49.08 28.6782 49.0167 28.2782 48.89C27.8849 48.7633 27.5449 48.5867 27.2582 48.36C27.1582 48.2867 27.0849 48.2067 27.0382 48.12C26.9982 48.0333 26.9782 47.9333 26.9782 47.82C26.9782 47.6467 27.0282 47.5 27.1282 47.38C27.2282 47.2533 27.3482 47.19 27.4882 47.19C27.5682 47.19 27.6415 47.2033 27.7082 47.23C27.7749 47.25 27.8582 47.29 27.9582 47.35C28.2515 47.5167 28.5049 47.6433 28.7182 47.73C28.9315 47.8167 29.1815 47.86 29.4682 47.86C29.8749 47.86 30.1715 47.7867 30.3582 47.64C30.5449 47.4867 30.6382 47.25 30.6382 46.93C30.6382 46.6167 30.5415 46.39 30.3482 46.25C30.1549 46.11 29.8449 46.04 29.4182 46.04H28.8282C28.6549 46.04 28.5182 45.98 28.4182 45.86C28.3182 45.74 28.2682 45.5967 28.2682 45.43C28.2682 45.27 28.3182 45.13 28.4182 45.01C28.5182 44.89 28.6549 44.83 28.8282 44.83H29.2482C29.6549 44.83 29.9549 44.76 30.1482 44.62C30.3482 44.48 30.4482 44.2633 30.4482 43.97C30.4482 43.69 30.3649 43.4733 30.1982 43.32C30.0315 43.16 29.7982 43.08 29.4982 43.08C29.2515 43.08 29.0215 43.1233 28.8082 43.21C28.5949 43.2967 28.3482 43.4233 28.0682 43.59C27.9682 43.65 27.8849 43.6933 27.8182 43.72C27.7515 43.74 27.6782 43.75 27.5982 43.75C27.4582 43.75 27.3382 43.69 27.2382 43.57C27.1382 43.4433 27.0882 43.2933 27.0882 43.12C27.0882 43 27.1082 42.9 27.1482 42.82C27.1949 42.7333 27.2682 42.6533 27.3682 42.58C27.6482 42.3533 27.9815 42.1767 28.3682 42.05C28.7615 41.9233 29.1615 41.86 29.5682 41.86C30.0415 41.86 30.4582 41.94 30.8182 42.1C31.1782 42.2533 31.4549 42.4733 31.6482 42.76C31.8415 43.0467 31.9382 43.38 31.9382 43.76C31.9382 44.14 31.8382 44.4733 31.6382 44.76C31.4449 45.04 31.1749 45.2433 30.8282 45.37Z" fill="#008080"/>
</svg>
