<svg width="39" height="54" viewBox="0 0 39 54" fill="none" xmlns="http://www.w3.org/2000/svg">
<circle cx="19.5" cy="19.5" r="17.5" stroke="#008080" stroke-opacity="0.5" stroke-width="4"/>
<path d="M12.1248 3.63001C8.27416 5.41951 5.20547 8.548 3.49063 12.4325C1.77578 16.3169 1.53175 20.6924 2.80402 24.7435C4.07628 28.7946 6.77805 32.2449 10.4058 34.4515C14.0336 36.658 18.3399 37.4704 22.5223 36.737C26.7047 36.0037 30.4777 33.7748 33.1384 30.4656C35.7991 27.1564 37.1658 22.9927 36.9839 18.7505C36.8021 14.5082 35.084 10.4768 32.1499 7.40743C29.2158 4.33809 25.2658 2.44024 21.036 2.06754" stroke="#008080" stroke-width="4" stroke-linecap="round"/>
<path d="M12 12L13.3633 27.4609L19.4805 29.5L25.6367 27.4609L27 12H12ZM24.0391 16.9961H16.8594L17.0195 18.9258H23.8789L23.3477 24.7227L19.5234 25.7773V25.7891H19.4805L15.625 24.7227L15.3906 21.7617H17.2539L17.3906 23.25L19.4805 23.8164L21.5781 23.25L21.8125 20.8203H15.293L14.793 15.1328H24.2109L24.0391 16.9961Z" fill="#008080"/>
<path d="M9.24 42.9C9.47333 42.9 9.66 42.97 9.8 43.11C9.94 43.25 10.01 43.4367 10.01 43.67V49.28C10.01 49.5133 9.94 49.7033 9.8 49.85C9.66 49.99 9.47333 50.06 9.24 50.06C9.00667 50.06 8.82 49.99 8.68 49.85C8.54667 49.71 8.48 49.52 8.48 49.28V47.04H5.23V49.28C5.23 49.5133 5.16 49.7033 5.02 49.85C4.88 49.99 4.69667 50.06 4.47 50.06C4.23667 50.06 4.05 49.99 3.91 49.85C3.77 49.71 3.7 49.52 3.7 49.28V43.67C3.7 43.4367 3.77 43.25 3.91 43.11C4.05 42.97 4.23667 42.9 4.47 42.9C4.70333 42.9 4.88667 42.97 5.02 43.11C5.16 43.25 5.23 43.4367 5.23 43.67V45.8H8.48V43.67C8.48 43.4367 8.54667 43.25 8.68 43.11C8.82 42.97 9.00667 42.9 9.24 42.9ZM13.8248 50.05C13.5915 50.05 13.4015 49.98 13.2548 49.84C13.1148 49.7 13.0448 49.5133 13.0448 49.28V44.22H11.4248C10.9315 44.22 10.6848 44.0067 10.6848 43.58C10.6848 43.16 10.9315 42.95 11.4248 42.95H16.2248C16.7182 42.95 16.9648 43.16 16.9648 43.58C16.9648 44.0067 16.7182 44.22 16.2248 44.22H14.6048V49.28C14.6048 49.5133 14.5348 49.7 14.3948 49.84C14.2548 49.98 14.0648 50.05 13.8248 50.05ZM23.8955 42.9C24.1155 42.9 24.2922 42.9733 24.4255 43.12C24.5655 43.26 24.6355 43.4433 24.6355 43.67V49.35C24.6355 49.57 24.5722 49.7433 24.4455 49.87C24.3189 49.9967 24.1522 50.06 23.9455 50.06C23.7455 50.06 23.5822 49.9967 23.4555 49.87C23.3289 49.7433 23.2655 49.57 23.2655 49.35V45.82L21.8455 48.49C21.7522 48.6633 21.6489 48.79 21.5355 48.87C21.4289 48.95 21.2989 48.99 21.1455 48.99C20.9989 48.99 20.8689 48.95 20.7555 48.87C20.6422 48.79 20.5389 48.6633 20.4455 48.49L19.0255 45.87V49.35C19.0255 49.5633 18.9622 49.7367 18.8355 49.87C18.7089 49.9967 18.5422 50.06 18.3355 50.06C18.1355 50.06 17.9722 49.9967 17.8455 49.87C17.7189 49.7433 17.6555 49.57 17.6555 49.35V43.67C17.6555 43.4433 17.7222 43.26 17.8555 43.12C17.9955 42.9733 18.1755 42.9 18.3955 42.9C18.7155 42.9 18.9589 43.07 19.1255 43.41L21.1555 47.26L23.1755 43.41C23.3555 43.07 23.5955 42.9 23.8955 42.9ZM26.7835 50C26.5502 50 26.3702 49.9367 26.2435 49.81C26.1168 49.6833 26.0535 49.5033 26.0535 49.27V43.67C26.0535 43.4367 26.1235 43.25 26.2635 43.11C26.4035 42.97 26.5935 42.9 26.8335 42.9C27.0735 42.9 27.2635 42.97 27.4035 43.11C27.5435 43.25 27.6135 43.4367 27.6135 43.67V48.73H30.1735C30.6602 48.73 30.9035 48.9433 30.9035 49.37C30.9035 49.79 30.6602 50 30.1735 50H26.7835ZM34.4183 45.44C34.8516 45.44 35.2383 45.5367 35.5783 45.73C35.9183 45.9167 36.1816 46.18 36.3683 46.52C36.5549 46.86 36.6483 47.2533 36.6483 47.7C36.6483 48.1667 36.5383 48.58 36.3183 48.94C36.0983 49.3 35.7883 49.58 35.3883 49.78C34.9949 49.98 34.5383 50.08 34.0183 50.08C33.6049 50.08 33.2016 50.0167 32.8083 49.89C32.4149 49.7633 32.0749 49.5867 31.7883 49.36C31.6883 49.2867 31.6183 49.21 31.5783 49.13C31.5383 49.0433 31.5183 48.94 31.5183 48.82C31.5183 48.6467 31.5649 48.5 31.6583 48.38C31.7583 48.2533 31.8783 48.19 32.0183 48.19C32.0983 48.19 32.1716 48.2033 32.2383 48.23C32.3049 48.25 32.3916 48.29 32.4983 48.35C32.7649 48.51 33.0083 48.6367 33.2283 48.73C33.4483 48.8167 33.6883 48.86 33.9483 48.86C34.3549 48.86 34.6616 48.7667 34.8683 48.58C35.0816 48.3933 35.1883 48.1167 35.1883 47.75C35.1883 47.4033 35.0783 47.13 34.8583 46.93C34.6449 46.73 34.3549 46.63 33.9883 46.63C33.7616 46.63 33.5549 46.66 33.3683 46.72C33.1816 46.7733 32.9783 46.8667 32.7583 47C32.6183 47.08 32.4783 47.12 32.3383 47.12C32.1783 47.12 32.0416 47.0733 31.9283 46.98C31.8216 46.88 31.7683 46.75 31.7683 46.59V43.68C31.7683 43.4467 31.8316 43.2667 31.9583 43.14C32.0849 43.0133 32.2649 42.95 32.4983 42.95H35.7183C36.2116 42.95 36.4583 43.1467 36.4583 43.54C36.4583 43.94 36.2116 44.14 35.7183 44.14H33.2883V45.71C33.6083 45.53 33.9849 45.44 34.4183 45.44Z" fill="#008080"/>
</svg>
