<svg width="50" height="53" viewBox="0 0 50 53" fill="none" xmlns="http://www.w3.org/2000/svg">
<path d="M30.3929 13H18.6071C17.7199 13 17 13.7199 17 14.6071V26.3929C17 27.2801 17.7199 28 18.6071 28H30.3929C31.2801 28 32 27.2801 32 26.3929V14.6071C32 13.7199 31.2801 13 30.3929 13ZM25.1629 24.6987C25.1629 26.1585 24.3058 26.8248 23.0569 26.8248C21.9286 26.8248 21.2757 26.2422 20.9408 25.5357L22.0893 24.8426C22.3103 25.2344 22.5112 25.5658 22.9967 25.5658C23.4587 25.5658 23.7533 25.385 23.7533 24.6786V19.8873H25.1629V24.6987ZM28.4978 26.8248C27.1886 26.8248 26.3415 26.202 25.9297 25.385L27.0781 24.7221C27.3795 25.2143 27.7746 25.5792 28.4676 25.5792C29.0502 25.5792 29.4252 25.2879 29.4252 24.8828C29.4252 24.4007 29.0435 24.2299 28.3973 23.9453L28.0458 23.7946C27.0279 23.3627 26.3549 22.817 26.3549 21.6685C26.3549 20.6105 27.1618 19.8069 28.4174 19.8069C29.3147 19.8069 29.9576 20.1183 30.4196 20.9353L29.3214 21.6384C29.0804 21.2065 28.8192 21.0357 28.4141 21.0357C28.0022 21.0357 27.7411 21.2969 27.7411 21.6384C27.7411 22.0603 28.0022 22.231 28.6083 22.4955L28.9598 22.6462C30.1585 23.1585 30.8315 23.6842 30.8315 24.8627C30.8315 26.1283 29.8337 26.8248 28.4978 26.8248Z" fill="#008080"/>
<circle cx="24.5" cy="19.5" r="17.5" stroke="#008080" stroke-opacity="0.5" stroke-width="4"/>
<path d="M8.08 13.4474C6.81178 16.888 6.65634 20.64 7.63562 24.1736C8.61491 27.7073 10.6794 30.8441 13.5377 33.141C16.396 35.438 19.9035 36.7791 23.5651 36.975C27.2267 37.1709 30.8574 36.2117 33.9444 34.2327C37.0314 32.2538 39.4188 29.3552 40.7695 25.9462C42.1202 22.5372 42.3659 18.79 41.472 15.2338C40.5781 11.6776 38.5897 8.49203 35.7876 6.1269C32.9855 3.76176 29.5112 2.33657 25.8554 2.05257" stroke="#008080" stroke-width="4" stroke-linecap="round"/>
<path d="M1.77 49.06C1.46333 49.0733 1.23 49.0267 1.07 48.92C0.916667 48.8133 0.84 48.65 0.84 48.43C0.84 48.23 0.89 48.0833 0.99 47.99C1.09 47.89 1.24667 47.8333 1.46 47.82L1.78 47.8C2.26 47.78 2.5 47.4967 2.5 46.95V42.67C2.5 42.4367 2.57333 42.25 2.72 42.11C2.86667 41.97 3.05667 41.9 3.29 41.9C3.52333 41.9 3.71 41.97 3.85 42.11C3.99667 42.25 4.07 42.4367 4.07 42.67V46.93C4.07 48.25 3.41 48.9533 2.09 49.04L1.77 49.06ZM7.55953 43.97C8.27953 43.97 8.81286 44.1467 9.15953 44.5C9.5062 44.8467 9.67953 45.38 9.67953 46.1V48.36C9.67953 48.58 9.6162 48.7533 9.48953 48.88C9.36286 49 9.1862 49.06 8.95953 49.06C8.7462 49.06 8.57286 48.9967 8.43953 48.87C8.31286 48.7367 8.24953 48.5667 8.24953 48.36V48.29C8.14953 48.5367 7.98286 48.73 7.74953 48.87C7.5162 49.01 7.24286 49.08 6.92953 49.08C6.5962 49.08 6.29286 49.0133 6.01953 48.88C5.75286 48.7467 5.53953 48.56 5.37953 48.32C5.2262 48.08 5.14953 47.8133 5.14953 47.52C5.14953 47.16 5.23953 46.8767 5.41953 46.67C5.6062 46.4633 5.90286 46.3133 6.30953 46.22C6.7162 46.1267 7.27286 46.08 7.97953 46.08H8.23953V45.9C8.23953 45.62 8.1762 45.4167 8.04953 45.29C7.92953 45.1633 7.7262 45.1 7.43953 45.1C7.15286 45.1 6.73953 45.2 6.19953 45.4C6.0462 45.4733 5.9162 45.51 5.80953 45.51C5.66286 45.51 5.5462 45.46 5.45953 45.36C5.37286 45.2533 5.32953 45.1167 5.32953 44.95C5.32953 44.8167 5.35953 44.7067 5.41953 44.62C5.47953 44.5333 5.5762 44.4533 5.70953 44.38C5.94286 44.2533 6.2262 44.1533 6.55953 44.08C6.89953 44.0067 7.23286 43.97 7.55953 43.97ZM7.25953 48.04C7.55286 48.04 7.78953 47.9433 7.96953 47.75C8.14953 47.55 8.23953 47.2933 8.23953 46.98V46.81H8.06953C7.52953 46.81 7.14953 46.8533 6.92953 46.94C6.7162 47.0267 6.60953 47.1833 6.60953 47.41C6.60953 47.5967 6.66953 47.75 6.78953 47.87C6.9162 47.9833 7.07286 48.04 7.25953 48.04ZM14.1585 44.42C14.2252 44.28 14.3118 44.1767 14.4185 44.11C14.5318 44.0367 14.6518 44 14.7785 44C14.9652 44 15.1318 44.0633 15.2785 44.19C15.4252 44.31 15.4985 44.4567 15.4985 44.63C15.4985 44.73 15.4752 44.8267 15.4285 44.92L13.6285 48.61C13.5618 48.7567 13.4618 48.87 13.3285 48.95C13.1952 49.0233 13.0518 49.06 12.8985 49.06C12.7452 49.06 12.6018 49.0233 12.4685 48.95C12.3352 48.87 12.2318 48.7567 12.1585 48.61L10.3585 44.92C10.3185 44.8267 10.2985 44.7367 10.2985 44.65C10.2985 44.47 10.3752 44.3167 10.5285 44.19C10.6885 44.0633 10.8652 44 11.0585 44C11.1985 44 11.3252 44.0367 11.4385 44.11C11.5518 44.1767 11.6418 44.28 11.7085 44.42L12.9385 47.11L14.1585 44.42ZM18.3115 43.97C19.0315 43.97 19.5648 44.1467 19.9115 44.5C20.2582 44.8467 20.4315 45.38 20.4315 46.1V48.36C20.4315 48.58 20.3682 48.7533 20.2415 48.88C20.1148 49 19.9382 49.06 19.7115 49.06C19.4982 49.06 19.3248 48.9967 19.1915 48.87C19.0648 48.7367 19.0015 48.5667 19.0015 48.36V48.29C18.9015 48.5367 18.7348 48.73 18.5015 48.87C18.2682 49.01 17.9948 49.08 17.6815 49.08C17.3482 49.08 17.0448 49.0133 16.7715 48.88C16.5048 48.7467 16.2915 48.56 16.1315 48.32C15.9782 48.08 15.9015 47.8133 15.9015 47.52C15.9015 47.16 15.9915 46.8767 16.1715 46.67C16.3582 46.4633 16.6548 46.3133 17.0615 46.22C17.4682 46.1267 18.0248 46.08 18.7315 46.08H18.9915V45.9C18.9915 45.62 18.9282 45.4167 18.8015 45.29C18.6815 45.1633 18.4782 45.1 18.1915 45.1C17.9048 45.1 17.4915 45.2 16.9515 45.4C16.7982 45.4733 16.6682 45.51 16.5615 45.51C16.4148 45.51 16.2982 45.46 16.2115 45.36C16.1248 45.2533 16.0815 45.1167 16.0815 44.95C16.0815 44.8167 16.1115 44.7067 16.1715 44.62C16.2315 44.5333 16.3282 44.4533 16.4615 44.38C16.6948 44.2533 16.9782 44.1533 17.3115 44.08C17.6515 44.0067 17.9848 43.97 18.3115 43.97ZM18.0115 48.04C18.3048 48.04 18.5415 47.9433 18.7215 47.75C18.9015 47.55 18.9915 47.2933 18.9915 46.98V46.81H18.8215C18.2815 46.81 17.9015 46.8533 17.6815 46.94C17.4682 47.0267 17.3615 47.1833 17.3615 47.41C17.3615 47.5967 17.4215 47.75 17.5415 47.87C17.6682 47.9833 17.8248 48.04 18.0115 48.04ZM24.2205 49.09C23.6938 49.09 23.2038 49.03 22.7505 48.91C22.2971 48.7833 21.9271 48.6067 21.6405 48.38C21.5405 48.3067 21.4671 48.23 21.4205 48.15C21.3805 48.0633 21.3605 47.9567 21.3605 47.83C21.3605 47.6633 21.4105 47.5167 21.5105 47.39C21.6171 47.2633 21.7371 47.2 21.8705 47.2C21.9438 47.2 22.0138 47.2133 22.0805 47.24C22.1538 47.26 22.2405 47.3 22.3405 47.36C22.6271 47.54 22.9171 47.6733 23.2105 47.76C23.5038 47.84 23.8271 47.88 24.1805 47.88C24.6205 47.88 24.9571 47.8067 25.1905 47.66C25.4238 47.5133 25.5405 47.3033 25.5405 47.03C25.5405 46.8233 25.4305 46.6567 25.2105 46.53C24.9971 46.4033 24.6138 46.2833 24.0605 46.17C23.4405 46.0433 22.9438 45.89 22.5705 45.71C22.2038 45.53 21.9338 45.3067 21.7605 45.04C21.5938 44.7733 21.5105 44.45 21.5105 44.07C21.5105 43.65 21.6305 43.2733 21.8705 42.94C22.1171 42.6 22.4538 42.3367 22.8805 42.15C23.3138 41.9567 23.8005 41.86 24.3405 41.86C25.2871 41.86 26.0671 42.0967 26.6805 42.57C26.7805 42.65 26.8505 42.7333 26.8905 42.82C26.9371 42.9 26.9605 43 26.9605 43.12C26.9605 43.2867 26.9071 43.4333 26.8005 43.56C26.7005 43.6867 26.5838 43.75 26.4505 43.75C26.3771 43.75 26.3071 43.74 26.2405 43.72C26.1805 43.7 26.0938 43.6567 25.9805 43.59C25.7071 43.4167 25.4538 43.2867 25.2205 43.2C24.9938 43.1133 24.7038 43.07 24.3505 43.07C23.9438 43.07 23.6238 43.15 23.3905 43.31C23.1571 43.4633 23.0405 43.6767 23.0405 43.95C23.0405 44.11 23.0838 44.2433 23.1705 44.35C23.2638 44.45 23.4138 44.54 23.6205 44.62C23.8338 44.7 24.1338 44.7833 24.5205 44.87C25.4271 45.07 26.0771 45.3267 26.4705 45.64C26.8705 45.9533 27.0705 46.3833 27.0705 46.93C27.0705 47.3567 26.9505 47.7333 26.7105 48.06C26.4771 48.3867 26.1438 48.64 25.7105 48.82C25.2838 49 24.7871 49.09 24.2205 49.09ZM30.3441 49.08C29.8375 49.08 29.3941 48.9767 29.0141 48.77C28.6341 48.5633 28.3408 48.27 28.1341 47.89C27.9341 47.51 27.8341 47.0633 27.8341 46.55C27.8341 46.0367 27.9408 45.5867 28.1541 45.2C28.3741 44.8067 28.6808 44.5033 29.0741 44.29C29.4675 44.0767 29.9208 43.97 30.4341 43.97C30.7008 43.97 30.9675 44.0067 31.2341 44.08C31.5075 44.1533 31.7508 44.2567 31.9641 44.39C32.1708 44.5167 32.2741 44.7033 32.2741 44.95C32.2741 45.1233 32.2341 45.2667 32.1541 45.38C32.0741 45.4867 31.9675 45.54 31.8341 45.54C31.7475 45.54 31.6641 45.5267 31.5841 45.5C31.5108 45.4667 31.4108 45.42 31.2841 45.36C31.1441 45.2867 31.0175 45.23 30.9041 45.19C30.7975 45.15 30.6741 45.13 30.5341 45.13C30.1608 45.13 29.8741 45.25 29.6741 45.49C29.4808 45.7233 29.3841 46.0667 29.3841 46.52C29.3841 46.9733 29.4808 47.32 29.6741 47.56C29.8741 47.8 30.1608 47.92 30.5341 47.92C30.6741 47.92 30.7975 47.9033 30.9041 47.87C31.0108 47.83 31.1408 47.77 31.2941 47.69C31.4208 47.63 31.5208 47.5867 31.5941 47.56C31.6675 47.5267 31.7475 47.51 31.8341 47.51C31.9608 47.51 32.0641 47.5667 32.1441 47.68C32.2308 47.7933 32.2741 47.9367 32.2741 48.11C32.2741 48.3567 32.1708 48.54 31.9641 48.66C31.7508 48.7933 31.5041 48.8967 31.2241 48.97C30.9441 49.0433 30.6508 49.08 30.3441 49.08ZM35.9455 43.99C36.1455 43.9767 36.3022 44.0233 36.4155 44.13C36.5355 44.23 36.5955 44.3833 36.5955 44.59C36.5955 44.81 36.5422 44.9733 36.4355 45.08C36.3289 45.1867 36.1389 45.2533 35.8655 45.28L35.5655 45.31C35.1989 45.35 34.9322 45.47 34.7655 45.67C34.6055 45.87 34.5255 46.1267 34.5255 46.44V48.35C34.5255 48.5833 34.4522 48.76 34.3055 48.88C34.1655 49 33.9889 49.06 33.7755 49.06C33.5555 49.06 33.3722 49 33.2255 48.88C33.0855 48.76 33.0155 48.5833 33.0155 48.35V44.68C33.0155 44.46 33.0889 44.29 33.2355 44.17C33.3822 44.05 33.5589 43.99 33.7655 43.99C33.9655 43.99 34.1322 44.05 34.2655 44.17C34.3989 44.2833 34.4655 44.4433 34.4655 44.65V44.92C34.5855 44.6333 34.7655 44.4133 35.0055 44.26C35.2522 44.1067 35.5189 44.02 35.8055 44L35.9455 43.99ZM37.7892 49.06C37.5692 49.06 37.3859 49 37.2392 48.88C37.0992 48.76 37.0292 48.5833 37.0292 48.35V44.7C37.0292 44.4667 37.1026 44.29 37.2492 44.17C37.3959 44.05 37.5759 43.99 37.7892 43.99C38.0026 43.99 38.1792 44.05 38.3192 44.17C38.4659 44.29 38.5392 44.4667 38.5392 44.7V48.35C38.5392 48.5833 38.4659 48.76 38.3192 48.88C38.1792 49 38.0026 49.06 37.7892 49.06ZM37.7892 43.19C37.5226 43.19 37.3126 43.1233 37.1592 42.99C37.0059 42.85 36.9292 42.6633 36.9292 42.43C36.9292 42.1967 37.0059 42.0133 37.1592 41.88C37.3126 41.7467 37.5226 41.68 37.7892 41.68C38.0492 41.68 38.2559 41.75 38.4092 41.89C38.5692 42.0233 38.6492 42.2033 38.6492 42.43C38.6492 42.6633 38.5726 42.85 38.4192 42.99C38.2659 43.1233 38.0559 43.19 37.7892 43.19ZM42.7352 43.97C43.1552 43.97 43.5286 44.08 43.8552 44.3C44.1886 44.5133 44.4452 44.8167 44.6252 45.21C44.8119 45.5967 44.9052 46.0433 44.9052 46.55C44.9052 47.0567 44.8119 47.5033 44.6252 47.89C44.4452 48.27 44.1919 48.5633 43.8652 48.77C43.5386 48.9767 43.1619 49.08 42.7352 49.08C42.4019 49.08 42.0986 49.0133 41.8252 48.88C41.5586 48.74 41.3519 48.5467 41.2052 48.3V50.19C41.2052 50.39 41.1386 50.55 41.0052 50.67C40.8719 50.79 40.6952 50.85 40.4752 50.85C40.2419 50.85 40.0519 50.7867 39.9052 50.66C39.7652 50.5333 39.6952 50.3667 39.6952 50.16V44.7C39.6952 44.4867 39.7619 44.3167 39.8952 44.19C40.0352 44.0567 40.2186 43.99 40.4452 43.99C40.6719 43.99 40.8519 44.0567 40.9852 44.19C41.1186 44.3167 41.1852 44.4867 41.1852 44.7V44.78C41.3319 44.5267 41.5419 44.33 41.8152 44.19C42.0886 44.0433 42.3952 43.97 42.7352 43.97ZM42.2952 47.93C42.6486 47.93 42.9219 47.8133 43.1152 47.58C43.3086 47.34 43.4052 46.9967 43.4052 46.55C43.4052 46.0967 43.3086 45.7467 43.1152 45.5C42.9219 45.2467 42.6486 45.12 42.2952 45.12C41.9419 45.12 41.6686 45.2433 41.4752 45.49C41.2819 45.73 41.1852 46.0767 41.1852 46.53C41.1852 46.9767 41.2819 47.3233 41.4752 47.57C41.6686 47.81 41.9419 47.93 42.2952 47.93ZM48.5092 47.96C48.7092 47.9733 48.8559 48.0233 48.9492 48.11C49.0426 48.1967 49.0892 48.3233 49.0892 48.49C49.0892 48.6833 49.0126 48.83 48.8592 48.93C48.7059 49.03 48.4859 49.07 48.1992 49.05L47.9192 49.03C46.7526 48.9367 46.1692 48.3267 46.1692 47.2V45.22H45.7692C45.5492 45.22 45.3826 45.1733 45.2692 45.08C45.1559 44.98 45.0992 44.84 45.0992 44.66C45.0992 44.4733 45.1559 44.3333 45.2692 44.24C45.3826 44.14 45.5492 44.09 45.7692 44.09H46.1692V43.31C46.1692 43.09 46.2359 42.9167 46.3692 42.79C46.5092 42.6633 46.6959 42.6 46.9292 42.6C47.1626 42.6 47.3459 42.6633 47.4792 42.79C47.6126 42.9167 47.6792 43.09 47.6792 43.31V44.09H48.3792C48.8326 44.09 49.0592 44.28 49.0592 44.66C49.0592 44.84 49.0026 44.98 48.8892 45.08C48.7759 45.1733 48.6059 45.22 48.3792 45.22H47.6792V47.31C47.6792 47.51 47.7259 47.6633 47.8192 47.77C47.9126 47.87 48.0492 47.9267 48.2292 47.94L48.5092 47.96Z" fill="#008080"/>
</svg>
