<svg width="39" height="39" viewBox="0 0 39 39" fill="none" xmlns="http://www.w3.org/2000/svg">
<circle cx="19.5" cy="19.5" r="17.5" stroke="#008080" stroke-opacity="0.5" stroke-width="4"/>
<path d="M8.84972 5.61398C5.48045 8.19814 3.16566 11.9192 2.33672 16.0836C1.50777 20.2481 2.22123 24.5719 4.34413 28.2493C6.46702 31.9266 9.85454 34.7067 13.8754 36.0715C17.8963 37.4362 22.2762 37.2925 26.1989 35.6671C30.1217 34.0417 33.3196 31.0455 35.1969 27.2368C37.0741 23.4282 37.5026 19.0669 36.4024 14.9657C35.3022 10.8646 32.7484 7.30333 29.217 4.94562C25.6856 2.58791 21.4174 1.59459 17.2078 2.15077" stroke="#008080" stroke-width="4" stroke-linecap="round"/>
<path d="M12 12L13.3633 27.4609L19.4805 29.5L25.6367 27.4609L27 12H12ZM24.0391 16.9961H16.8594L17.0195 18.9258H23.8789L23.3477 24.7227L19.5234 25.7773V25.7891H19.4805L15.625 24.7227L15.3906 21.7617H17.2539L17.3906 23.25L19.4805 23.8164L21.5781 23.25L21.8125 20.8203H15.293L14.793 15.1328H24.2109L24.0391 16.9961V16.9961Z" fill="#008080"/>
</svg>
